
<svg xmlns="http://www.w3.org/2000/svg" viewBox="0 0 55 55">
	<style type="text/css">
		.st0{fill:url(#SVGID_1_);filter:url(#email-dropshadow);}
		.st1{fill:#FFFFFF;}
	</style>
	<linearGradient id="SVGID_1_" gradientUnits="userSpaceOnUse" x1="27.5" y1="53.0256" x2="27.5" y2="3.9744" gradientTransform="matrix(1 0 0 -1 0 56)">
		<stop  offset="0" style="stop-color:#1B48F8"/>
		<stop  offset="0.5" style="stop-color:#039DFC"/>
		<stop  offset="1" style="stop-color:#00E6FF"/>
	</linearGradient>
	<filter filterUnits="objectBoundingBox" id="email-dropshadow">
		<feOffset dx="0" dy=".125" in="SourceAlpha" result="defappShadowOffsetOuter1"></feOffset>
		<feGaussianBlur stdDeviation=".5" in="defappShadowOffsetOuter1" result="defappShadowBlurOuter1"></feGaussianBlur>
		<feColorMatrix values="0 0 0 0 0   0 0 0 0 0   0 0 0 0 0  0 0 0 0.35 0" type="matrix" in="defappShadowBlurOuter1" result="defappShadowMatrixOuter1"></feColorMatrix>
		<feMerge>
			<feMergeNode in="defappShadowMatrixOuter1"/>
			<feMergeNode in="SourceGraphic"/>
		</feMerge>
	</filter>
	<path class="st0" d="M40.8,52H14.2C8,52,3,47,3,40.8V14.2C3,8,8,3,14.2,3h26.6C47,3,52,8,52,14.2v26.6C52,47,47,52,40.8,52z"/>
	<path class="st1" d="M24.8,30.2c1.7,1.7,3.8,1.7,5.5,0L43,17.4c-0.3-0.2-0.8-0.4-1.3-0.4H13.2c-0.5,0-0.9,0.1-1.3,0.4L24.8,30.2z"/>
	<path class="st1" d="M43.7,36.9c0.2-0.3,0.3-0.7,0.3-1.3V19.3c0-0.4-0.1-0.8-0.3-1.2l-9.4,9.4L43.7,36.9z"/>
	<path class="st1" d="M11.3,18.2c-0.2,0.3-0.3,0.7-0.3,1.2v16.5c0,0.4,0.1,0.8,0.3,1.3l9.3-9.3L11.3,18.2z"/>
	<path class="st1" d="M33.6,28.3L31,31c-1,1-2.3,1.6-3.5,1.6S25.1,32,24,31l-2.6-2.6l-9.3,9.3c0.3,0.2,0.7,0.3,1.3,0.3h28.5 c0.4,0,0.8-0.1,1.2-0.3L33.6,28.3z"/>
</svg>
