
<svg xmlns="http://www.w3.org/2000/svg" viewBox="0 0 55 55">
	<style type="text/css">
		.st0{fill:url(#SVGID_1_);}
		.st1{fill:#FFFFFF;}
	</style>
	<linearGradient id="SVGID_1_" gradientUnits="userSpaceOnUse" x1="27.5" y1="4.0808" x2="27.5" y2="50.9192">
		<stop offset="0" style="stop-color:#1B48F8"/>
		<stop offset="0.5" style="stop-color:#039DFC"/>
		<stop offset="1" style="stop-color:#00E6FF"/>
	</linearGradient>
	<path class="st0" d="M40.2,50.9H14.8c-5.9,0-10.7-4.8-10.7-10.7V14.8c0-5.9,4.8-10.7,10.7-10.7h25.4c5.9,0,10.7,4.8,10.7,10.7v25.4 C50.9,46.1,46.1,50.9,40.2,50.9z"/>
	<path class="st1" d="M24.9,30.1c1.6,1.6,3.6,1.6,5.2,0l12.2-12.2c-0.3-0.2-0.8-0.4-1.2-0.4H13.9c-0.5,0-0.9,0.1-1.2,0.4L24.9,30.1z" />
	<path class="st1" d="M43,36.5c0.2-0.3,0.3-0.7,0.3-1.2V19.7c0-0.4-0.1-0.8-0.3-1.1l-9,9L43,36.5z"/>
	<path class="st1" d="M12,18.6c-0.2,0.3-0.3,0.7-0.3,1.1v15.7c0,0.4,0.1,0.8,0.3,1.2l8.9-8.9L12,18.6z"/>
	<path class="st1" d="M33.3,28.3l-2.5,2.5c-1,1-2.2,1.5-3.3,1.5s-2.3-0.5-3.3-1.5l-2.5-2.5l-8.9,8.9c0.3,0.2,0.7,0.3,1.2,0.3h27.2 c0.4,0,0.8-0.1,1.1-0.3L33.3,28.3z"/>
</svg>
