<svg xmlns="http://www.w3.org/2000/svg" width="0" height="0">

	<svg id="tiny-arrow" viewBox="0 0 16 14">
		<style type="text/css">
			.st0{fill:none;stroke:#489bf7;stroke-width:2;stroke-linecap:round;stroke-miterlimit:10;}
			.st1{fill:none;stroke:#fffc;stroke-width:4;stroke-linecap:round;stroke-miterlimit:10;}
		</style>
		<line class="st1" x1="2" y1="7" x2="9" y2="2"/>
		<line class="st1" x1="2" y1="7" x2="15" y2="7"/>
		<line class="st1" x1="2" y1="7" x2="9" y2="12"/>
		<line class="st0" x1="2" y1="7" x2="9" y2="2"/>
		<line class="st0" x1="2" y1="7" x2="15" y2="7"/>
		<line class="st0" x1="2" y1="7" x2="9" y2="12"/>
	</svg>

	<svg id="icon-sidebar" viewBox="0 0 13 13">
		<style type="text/css">
			.st0{fill:#333;}
		</style>
		<path class="st0" d="M12,1H5H4H1H0v1v9v1h1h3h1h7h1v-1V2V1H12z M1,11V2h3v9H1z M12,11H5V2h7V11z"/>
		<rect x="2" y="3" class="st0" width="1" height="1"/>
		<rect x="2" y="5" class="st0" width="1" height="1"/>
	</svg>

	<svg id="icon-reply" viewBox="0 0 13 13">
		<style type="text/css">
			.st0{fill:#333;}
		</style>
		<path class="st0" d="M13,8.4c0,1-0.5,2.3-0.9,3.3c-0.1,0.2-0.2,0.4-0.3,0.6c-0.1,0.1-0.1,0.1-0.2,0.1c-0.1,0-0.2-0.1-0.2-0.3
			c0-0.1,0-0.2,0-0.4c0-0.3,0-0.6,0-0.9c0-3.5-2.1-4.1-5.2-4.1H4.6v1.9c0,0.3-0.2,0.5-0.5,0.5C4.1,9.1,3.9,9,3.9,8.9L0.1,5.2
			C0.1,5.1,0,5,0,4.9s0.1-0.2,0.1-0.3l3.7-3.7c0.1-0.1,0.2-0.1,0.3-0.1c0.3,0,0.5,0.2,0.5,0.5V3h1.6c2.4,0,5.3,0.4,6.3,2.9
			C12.9,6.7,13,7.5,13,8.4z"/>
	</svg>

	<svg id="icon-reply-all" viewBox="0 0 13 13">
		<style type="text/css">
			.st0{fill:#333;}
		</style>
		<path class="st0" d="M4.6,8.1v0.5c0,0.2-0.1,0.4-0.3,0.4c-0.1,0-0.1,0-0.2,0c-0.1,0-0.2,0-0.3-0.1L0.1,5.2C0,5,0,4.7,0.1,4.5
			l3.7-3.7C4,0.7,4.2,0.7,4.4,0.7C4.5,0.8,4.6,1,4.6,1.2v0.5L1.8,4.5C1.6,4.7,1.6,5,1.8,5.2L4.6,8.1z M13,8.4c0,1.5-1.1,3.7-1.2,3.8
			c0,0.1-0.1,0.1-0.2,0.1c0,0,0,0-0.1,0c-0.1,0-0.2-0.1-0.2-0.2c0.2-2,0-3.3-0.8-4.1C10,7.3,9,6.9,7.4,6.8v1.8c0,0.2-0.1,0.4-0.3,0.4
			C7.1,9,7,9.1,7,9.1c-0.1,0-0.2,0-0.3-0.1L2.9,5.2C2.7,5,2.7,4.7,2.9,4.5l3.7-3.7C6.8,0.7,7,0.7,7.1,0.7C7.3,0.8,7.4,1,7.4,1.2v1.9
			c2,0.1,3.4,0.7,4.3,1.6C12.9,5.8,13,7.3,13,8.4z"/>
	</svg>

	<svg id="icon-forward" viewBox="0 0 13 13">
		<style type="text/css">
			.st0{fill:#333;}
		</style>
		<path class="st0" d="M13,4.9c0,0.1-0.1,0.2-0.1,0.3L9.1,8.9C9.1,9,8.9,9.1,8.8,9.1c-0.3,0-0.5-0.2-0.5-0.5V6.7H6.7
			c-3.1,0-5.2,0.6-5.2,4.1c0,0.3,0,0.6,0,0.9c0,0.1,0,0.2,0,0.4c0,0.1-0.1,0.3-0.2,0.3c-0.1,0-0.2-0.1-0.2-0.1C1.1,12,1,11.8,0.9,11.6
			C0.5,10.7,0,9.4,0,8.4c0-0.8,0.1-1.6,0.4-2.4c1-2.5,4-2.9,6.3-2.9h1.6V1.2c0-0.3,0.2-0.5,0.5-0.5c0.1,0,0.2,0.1,0.3,0.1l3.7,3.7
			C12.9,4.6,13,4.8,13,4.9z"/>
	</svg>

	<svg id="icon-new-mail" viewBox="0 0 13 13">
		<style type="text/css">
			.st0{fill:#333;}
		</style>
		<path class="st0" d="M6.5,9.1l0.8-0.8L6.2,7.1L5.4,8v0.4h0.7v0.7H6.5z M9.7,3.8c-0.1-0.1-0.2-0.1-0.2,0L6.9,6.4c-0.1,0.1-0.1,0.2,0,0.2
			c0.1,0.1,0.2,0.1,0.2,0l2.6-2.6C9.7,4,9.7,3.9,9.7,3.8z M10.3,8.1v1.4c0,1.2-0.9,2.1-2.1,2.1H2.1C0.9,11.6,0,10.7,0,9.5V3.5
			c0-1.2,0.9-2.1,2.1-2.1h6.1c0.3,0,0.6,0.1,0.9,0.2c0.1,0,0.1,0.1,0.1,0.2c0,0.1,0,0.2-0.1,0.2L8.7,2.3C8.7,2.4,8.6,2.4,8.5,2.3
			c-0.1,0-0.2,0-0.3,0H2.1c-0.6,0-1.2,0.5-1.2,1.2v6.1c0,0.6,0.5,1.2,1.2,1.2h6.1c0.6,0,1.2-0.5,1.2-1.2V8.6c0-0.1,0-0.1,0.1-0.2
			L9.9,8c0.1-0.1,0.2-0.1,0.3-0.1C10.2,8,10.3,8.1,10.3,8.1z M9.6,2.8l2.1,2.1L6.8,9.8H4.7V7.7L9.6,2.8z M12.8,3.7l-0.7,0.7L10,2.3
			l0.7-0.7c0.3-0.3,0.7-0.3,1,0l1.1,1.1C13.1,3,13.1,3.5,12.8,3.7z"/>
	</svg>

	<svg id="icon-send-receive" viewBox="0 0 13 13">
		<style type="text/css">
			.st0{fill:#333;}
		</style>
		<path class="st0" d="M12.1,10.1V4.5c-0.2,0.2-0.3,0.3-0.5,0.5c-1,0.8-2.1,1.6-3.1,2.5c-0.5,0.5-1.2,1-2,1h0c-0.8,0-1.4-0.6-2-1
			C3.5,6.6,2.5,5.8,1.4,5C1.2,4.8,1.1,4.7,0.9,4.5v5.6c0,0.1,0.1,0.2,0.2,0.2h10.7C12,10.3,12.1,10.2,12.1,10.1z M12.1,2.4
			c0-0.2,0-0.5-0.2-0.5H1.2C1,1.9,0.9,2,0.9,2.2C0.9,3,1.3,3.7,2,4.2C3,5,3.9,5.8,4.9,6.5c0.4,0.3,1.1,1,1.6,1h0c0.5,0,1.2-0.7,1.6-1
			C9.1,5.8,10,5,11,4.2C11.5,3.9,12.1,3.1,12.1,2.4z M13,2.2v7.9c0,0.6-0.5,1.2-1.2,1.2H1.2c-0.6,0-1.2-0.5-1.2-1.2V2.2
			C0,1.5,0.5,1,1.2,1h10.7C12.5,1,13,1.5,13,2.2z"/>
	</svg>

	<svg id="icon-filter" viewBox="0 0 13 13">
		<style type="text/css">
			.st0{fill:#333;}
		</style>
		<path class="st0" d="M11.9,1.3c0.1,0.2,0,0.4-0.1,0.5L8,5.7v5.8c0,0.2-0.1,0.4-0.3,0.5c-0.1,0-0.1,0-0.2,0c-0.1,0-0.3,0-0.3-0.1l-2-2
			C5.1,9.7,5,9.6,5,9.5V5.7L1.2,1.9C1,1.7,1,1.5,1.1,1.3C1.2,1.2,1.3,1,1.5,1h9.9C11.7,1,11.8,1.2,11.9,1.3z"/>
	</svg>

	<svg id="icon-archive" viewBox="0 0 13 13">
		<style type="text/css">
			.st0{fill:#333;}
		</style>
		<path class="st0" d="M12.9,6.2L9.7,2.2C9.6,2.1,9.5,2,9.3,2H3.7C3.5,2,3.4,2.1,3.3,2.2L0.1,6.2C0,6.3,0,6.4,0,6.5v3.7C0,10.6,0.4,11,0.8,11h11.4
			c0.4,0,0.8-0.4,0.8-0.8V6.5C13,6.4,13,6.3,12.9,6.2z M12.2,6.9H9.3L7.7,8.5H5.3L3.7,6.9H0.8V6.6l3-3.8h5.3l3,3.8V6.9z"/>
		<path class="st0" d="M9.3,4.5H3.7c-0.2,0-0.4-0.2-0.4-0.4s0.2-0.4,0.4-0.4h5.7c0.2,0,0.4,0.2,0.4,0.4S9.6,4.5,9.3,4.5z"/>
		<path class="st0" d="M10.2,6.1H2.8c-0.2,0-0.4-0.2-0.4-0.4s0.2-0.4,0.4-0.4h7.3c0.2,0,0.4,0.2,0.4,0.4S10.4,6.1,10.2,6.1z"/>
	</svg>

	<svg id="icon-trash" viewBox="0 0 13 13">
		<style type="text/css">
			.st0{fill:#333;}
		</style>
		<path class="st0" d="M4.9,5.1V10c0,0.2-0.1,0.3-0.3,0.3H4.1c-0.2,0-0.3-0.1-0.3-0.3V5.1c0-0.2,0.1-0.3,0.3-0.3h0.5C4.8,4.9,4.9,5,4.9,5.1z
			 M7,5.1V10c0,0.2-0.1,0.3-0.3,0.3H6.2C6.1,10.3,6,10.2,6,10V5.1C6,5,6.1,4.9,6.2,4.9h0.5C6.9,4.9,7,5,7,5.1z M9.2,5.1V10
			c0,0.2-0.1,0.3-0.3,0.3H8.4c-0.2,0-0.3-0.1-0.3-0.3V5.1c0-0.2,0.1-0.3,0.3-0.3h0.5C9.1,4.9,9.2,5,9.2,5.1z M10.3,11.3v-8H2.7v8
			c0,0.4,0.2,0.6,0.3,0.6h7C10.1,11.9,10.3,11.7,10.3,11.3z M4.6,2.2h3.8L8,1.2c0,0-0.1-0.1-0.1-0.1H5.2C5.1,1.1,5,1.2,5,1.2L4.6,2.2z
			 M12.4,2.4V3c0,0.2-0.1,0.3-0.3,0.3h-0.8v8c0,0.9-0.6,1.7-1.4,1.7H3c-0.7,0-1.4-0.8-1.4-1.7v-8H0.8C0.7,3.3,0.6,3.1,0.6,3V2.4
			c0-0.2,0.1-0.3,0.3-0.3h2.6L4,0.8C4.2,0.3,4.7,0,5.1,0h2.7c0.4,0,1,0.3,1.1,0.8l0.6,1.4h2.6C12.3,2.2,12.4,2.3,12.4,2.4z"/>
	</svg>

	<svg id="icon-junk" viewBox="0 0 13 13">
		<style type="text/css">
			.st0{fill:#333;}
		</style>
		<path class="st0" d="M6.5,1.2c2.9,0,5.3,2.4,5.3,5.3s-2.4,5.3-5.3,5.3S1.2,9.4,1.2,6.5S3.6,1.2,6.5,1.2z M7.4,9.8V8.5c0-0.1-0.1-0.2-0.2-0.2H5.8
			c-0.1,0-0.2,0.1-0.2,0.2v1.3c0,0.1,0.1,0.2,0.2,0.2h1.3C7.3,10,7.4,9.9,7.4,9.8z M7.4,7.4l0.1-4.3c0,0,0-0.1-0.1-0.1
			C7.4,3,7.3,3,7.3,3H5.7C5.7,3,5.6,3,5.6,3c0,0-0.1,0.1-0.1,0.1l0.1,4.3c0,0.1,0.1,0.2,0.2,0.2h1.3C7.3,7.6,7.4,7.5,7.4,7.4z"/>
	</svg>

	<svg id="icon-tool-flag" viewBox="0 0 13 13">
		<style type="text/css">
			.st0{fill:#333;}
		</style>
		<path class="st0" d="M1.9,1.7c0,0.3-0.2,0.7-0.5,0.8V12c0,0.1-0.1,0.2-0.2,0.2H0.7c-0.1,0-0.2-0.1-0.2-0.2V2.5C0.2,2.3,0,2,0,1.7
			c0-0.5,0.4-1,1-1S1.9,1.2,1.9,1.7z M13,2.2v5.7c0,0.3-0.2,0.4-0.4,0.5c-0.9,0.5-1.8,0.9-2.8,0.9c-1.4,0-2-1.1-3.7-1.1
			C5,8.2,3.7,8.8,2.7,9.3c-0.1,0-0.2,0.1-0.2,0.1c-0.3,0-0.5-0.2-0.5-0.5V3.3C1.9,3.1,2,3,2.2,2.9c0.2-0.1,0.4-0.2,0.6-0.3
			c0.9-0.5,2.1-0.9,3.2-0.9c1.2,0,2.1,0.4,3.2,0.9c0.2,0.1,0.4,0.1,0.7,0.1c1.2,0,2.5-1,2.8-1C12.8,1.7,13,1.9,13,2.2z"/>
	</svg>

	<svg id="icon-flag" viewBox="0 0 13 13">
		<style type="text/css">
			.st0{fill:#f33;}
		</style>
		<path class="st0" d="M1.9,1.7c0,0.3-0.2,0.7-0.5,0.8V12c0,0.1-0.1,0.2-0.2,0.2H0.7c-0.1,0-0.2-0.1-0.2-0.2V2.5C0.2,2.3,0,2,0,1.7
			c0-0.5,0.4-1,1-1S1.9,1.2,1.9,1.7z M13,2.2v5.7c0,0.3-0.2,0.4-0.4,0.5c-0.9,0.5-1.8,0.9-2.8,0.9c-1.4,0-2-1.1-3.7-1.1
			C5,8.2,3.7,8.8,2.7,9.3c-0.1,0-0.2,0.1-0.2,0.1c-0.3,0-0.5-0.2-0.5-0.5V3.3C1.9,3.1,2,3,2.2,2.9c0.2-0.1,0.4-0.2,0.6-0.3
			c0.9-0.5,2.1-0.9,3.2-0.9c1.2,0,2.1,0.4,3.2,0.9c0.2,0.1,0.4,0.1,0.7,0.1c1.2,0,2.5-1,2.8-1C12.8,1.7,13,1.9,13,2.2z"/>
	</svg>

	<svg id="icon-send" viewBox="0 0 13 13">
		<style type="text/css">
			.st0{fill:#333;}
		</style>
		<path class="st0" d="M12.8,0.1C13,0.2,13,0.4,13,0.5l-1.9,11.1c0,0.1-0.1,0.3-0.2,0.3c-0.1,0-0.1,0.1-0.2,0.1c-0.1,0-0.1,0-0.2,0
			l-3.3-1.3l-1.8,2.1C5.4,12.9,5.2,13,5.1,13c-0.1,0-0.1,0-0.2,0c-0.2-0.1-0.3-0.2-0.3-0.4V10l6.3-7.7L3.2,9L0.3,7.9
			C0.1,7.8,0,7.6,0,7.5C0,7.3,0.1,7.1,0.2,7l12.1-7C12.4,0,12.5,0,12.5,0C12.6,0,12.7,0,12.8,0.1z"/>
	</svg>

	<svg id="icon-send-outline" viewBox="0 0 13 13">
		<style type="text/css">
			.st0{fill:#333;}
		</style>
		<path class="dt0" d="M12.8,0.1C13,0.2,13,0.4,13,0.5l-1.9,11.1c0,0.1-0.1,0.3-0.2,0.3c-0.1,0-0.1,0.1-0.2,0.1c-0.1,0-0.1,0-0.2,0l-3.8-1.6
			l-2.2,2.4C4.4,12.9,4.3,13,4.2,13c-0.1,0-0.1,0-0.2,0c-0.2-0.1-0.3-0.2-0.3-0.4V9.3L0.3,7.9C0.1,7.8,0,7.6,0,7.5
			C0,7.3,0.1,7.1,0.2,7l12.1-7C12.5,0,12.7,0,12.8,0.1z M10.3,11l1.6-9.6l-10.4,6l2.4,1l6.3-4.6L6.7,9.5L10.3,11z"/>
	</svg>

	<svg id="icon-mail-fields" viewBox="0 0 13 13">
		<style type="text/css">
			.st0{fill:none;stroke:#333;stroke-width:2;stroke-miterlimit:10;}
		</style>
		<line class="st0" x1="0" y1="3" x2="4" y2="3"/>
		<line class="st0" x1="6" y1="3" x2="13" y2="3"/>
		<line class="st0" x1="0" y1="7" x2="4" y2="7"/>
		<line class="st0" x1="6" y1="7" x2="13" y2="7"/>
		<line class="st0" x1="0" y1="11" x2="4" y2="11"/>
		<line class="st0" x1="6" y1="11" x2="13" y2="11"/>
	</svg>

	<svg id="icon-inbox" viewBox="0 0 13 13">
		<style type="text/css">
			.st0{fill:#333;}
		</style>
		<path class="st0" d="M8.7,7h2.7c0,0,0-0.1,0-0.1L9.5,2.7h-6L1.7,6.9c0,0,0,0.1,0,0.1h2.7l0.8,1.6h2.7L8.7,7z M13,7.3v4.1
			c0,0.3-0.2,0.5-0.5,0.5H0.5c-0.3,0-0.5-0.2-0.5-0.5V7.3c0-0.3,0.1-0.8,0.2-1l2-4.7C2.3,1.3,2.7,1.1,3,1.1h7c0.3,0,0.6,0.2,0.8,0.5
			l2,4.7C12.9,6.5,13,7,13,7.3z"/>
	</svg>

	<svg id="icon-edit" viewBox="0 0 13 13">
		<style type="text/css">
			.st0{fill:#333;}
		</style>
		<path class="st0" d="M3.6,11.1l0.7-0.7L2.6,8.7L1.9,9.4v0.8h0.9v0.9H3.6z M7.4,4.3c0-0.1-0.1-0.2-0.2-0.2c0,0-0.1,0-0.1,0.1L3.2,8.2
			c0,0-0.1,0.1-0.1,0.1c0,0.1,0.1,0.2,0.2,0.2c0,0,0.1,0,0.1-0.1l3.9-3.9C7.4,4.4,7.4,4.4,7.4,4.3z M7,2.9l3,3l-6,6H1V9L7,2.9z
			 M12,3.6c0,0.2-0.1,0.5-0.3,0.7l-1.2,1.2l-3-3l1.2-1.2C8.9,1.1,9.1,1,9.4,1C9.6,1,9.8,1.1,10,1.3L11.7,3C11.9,3.2,12,3.4,12,3.6z"/>
	</svg>

	<svg id="icon-cloud" viewBox="0 0 13 13">
		<style type="text/css">
			.st0{fill:#333;}
		</style>
		<path class="st0" d="M8.7,7.2c0-0.1-0.1-0.2-0.2-0.2H6.9V4.6c0-0.1-0.1-0.2-0.2-0.2H5.4c-0.1,0-0.2,0.1-0.2,0.2v2.4H3.7C3.6,6.9,3.5,7,3.5,7.2
			c0,0.1,0,0.1,0.1,0.2l2.4,2.4c0,0,0.1,0.1,0.2,0.1c0.1,0,0.1,0,0.2-0.1l2.4-2.4C8.6,7.3,8.7,7.2,8.7,7.2z M13,8.7
			c0,1.4-1.2,2.6-2.6,2.6H3c-1.7,0-3-1.4-3-3C0,7.1,0.7,6,1.7,5.5c0-0.1,0-0.2,0-0.3c0-1.9,1.6-3.5,3.5-3.5c1.4,0,2.7,0.9,3.2,2.2
			c0.3-0.3,0.7-0.4,1.1-0.4c1,0,1.7,0.8,1.7,1.7c0,0.3-0.1,0.7-0.3,0.9C12.2,6.4,13,7.5,13,8.7z"/>
	</svg>

	<svg id="icon-folder" viewBox="0 0 13 13">
		<style type="text/css">
			.st0{fill:#333;}
		</style>
		<path class="st0" d="M12,5v4.7c0,0.8-0.7,1.5-1.5,1.5h-8C1.7,11.2,1,10.5,1,9.7V3.3c0-0.8,0.7-1.5,1.5-1.5h2.1c0.8,0,1.5,0.7,1.5,1.5v0.2h4.4
			C11.3,3.5,12,4.2,12,5z"/>
	</svg>

	<svg id="icon-more-menu" viewBox="0 0 13 13">
		<style type="text/css">
			.st0{fill:#333;}
		</style>
		<circle class="st0" cx="6" cy="2" r="1.5"/>
		<circle class="st0" cx="6" cy="6.5" r="1.5"/>
		<circle class="st0" cx="6" cy="11" r="1.5"/>
	</svg>

	<svg id="icon-attachment" viewBox="0 0 13 13">
		<style type="text/css">
			.st0{fill:#333;}
		</style>
		<path class="st0" d="M8.9,4.2L8,3.3L3.9,7.4c-0.7,0.7-0.7,1.8,0,2.5c0.7,0.7,1.8,0.7,2.5,0L11.3,5c1.1-1.1,1.1-3,0-4.1c-1.1-1.1-3-1.1-4.1,0
			L2,6.1c0,0,0,0,0,0c-1.6,1.6-1.6,4.1,0,5.7c1.6,1.6,4.1,1.6,5.7,0c0,0,0,0,0,0l0,0l3.5-3.5l-0.8-0.8L6.9,11c0,0,0,0,0,0
			c-1.1,1.1-3,1.1-4.1,0c-1.1-1.1-1.1-3,0-4.1c0,0,0,0,0,0l0,0L8,1.7C8.7,1,9.8,1,10.5,1.7c0.7,0.7,0.7,1.8,0,2.5L5.6,9.1
			C5.3,9.3,5,9.3,4.7,9.1c-0.2-0.2-0.2-0.6,0-0.8L8.9,4.2L8.9,4.2z"/>
	</svg>
	
	<svg id="icon-clock" viewBox="0 0 13 13">
		<style type="text/css">
			.st0{fill:#333;}
		</style>
		<path class="st0" d="M8,8.9L5.9,6.8V3.9h1.3v2.3L8.9,8L8,8.9z M6.5,1.4c-2.8,0-5.1,2.3-5.1,5.1s2.3,5.1,5.1,5.1s5.1-2.3,5.1-5.1 S9.3,1.4,6.5,1.4z M6.5,10.3c-2.1,0-3.8-1.7-3.8-3.8s1.7-3.8,3.8-3.8s3.8,1.7,3.8,3.8S8.6,10.3,6.5,10.3z"/>
	</svg>
	
	<svg id="icon-blank" viewBox="0 0 13 13">
	</svg>
	
	<svg id="icon-play" viewBox="0 0 13 13">
		<style type="text/css">
			.st0{fill:#333;}
		</style>
		<polygon class="st0" points="3.4,12 11.7,6.5 3.4,1 2.1,1 2.1,12 "/>
	</svg>

	<svg id="icon-chevron-right" viewBox="0 0 13 13">
		<style type="text/css">
			.st0{fill:none;stroke:#444;stroke-width:2;stroke-miterlimit:10;}
		</style>
		<polyline class="st0" points="4,1 9.8,6.5 4,12.1 "/>
	</svg>
	
	<svg id="icon-slim-messages" viewBox="0 0 13 13">
		<style type="text/css">
			.st0{fill:none;stroke:#444;stroke-width:2;stroke-miterlimit:10;}
		</style>
		<line class="st0" x1="0" y1="2" x2="13" y2="2"/>
		<line class="st0" x1="0" y1="10" x2="13" y2="10"/>
		<line class="st0" x1="0" y1="6" x2="13" y2="6"/>
	</svg>
	
	<svg id="icon-thick-messages" viewBox="0 0 13 13">
		<style type="text/css">
			.st0{fill:none;stroke:#444;stroke-width:4;stroke-miterlimit:10;}
		</style>
		<line class="st0" x1="0" y1="3" x2="13" y2="3"/>
		<line class="st0" x1="0" y1="9" x2="13" y2="9"/>
	</svg>

	<svg id="icon-times" viewBox="0 0 13 13">
		<style type="text/css">
			.st0{fill:#333;}
		</style>
		<polygon class="st0" points="12,10.3 8.2,6.5 12,2.7 10.3,1 6.5,4.8 2.7,1 1,2.7 4.8,6.5 1,10.3 2.7,12 6.5,8.2 10.3,12 "/>
	</svg>
	
	<svg id="icon-location" viewBox="0 0 15 15">
		<style type="text/css">
			.st0{fill:#333;}
		</style>
		<path class="st0" d="M7.5,1C5,1,2.9,3,2.9,5.6C2.9,9,7.5,14,7.5,14S12,9,12,5.6C12,3,10,1,7.5,1z M4.2,5.6c0-1.8,1.5-3.2,3.2-3.2
			s3.2,1.5,3.2,3.2c0,1.9-1.9,4.7-3.2,6.4C6.1,10.2,4.2,7.4,4.2,5.6z"/>
		<circle class="st0" cx="7.5" cy="5.6" r="1.6"/>
	</svg>

	<svg id="icon-user" viewBox="0 0 15 15">
		<style type="text/css">
			.st0{fill:#333;}
		</style>
		<path class="st0" d="M7.5,7.5c1.8,0,3.3-1.5,3.3-3.3S9.3,0.9,7.5,0.9S4.2,2.4,4.2,4.2S5.7,7.5,7.5,7.5z M7.5,9.1
			c-2.2,0-6.6,1.1-6.6,3.3v1.6H14v-1.6C14,10.2,9.7,9.1,7.5,9.1z"/>
	</svg>

	<svg id="icon-calendar" viewBox="0 0 15 15">
		<style type="text/css">
			.st0{fill:#333;}
		</style>
		<path class="st0" d="M12.7,2h-0.7l0-1.1h-1.3l0,1.1H4.2l0-1.1H2.9l0,1.1H2.3C1.6,2,1,2.6,1,3.3v9.4C1,13.4,1.6,14,2.3,14h10.4
			c0.7,0,1.3-0.6,1.3-1.3V3.3C14,2.6,13.4,2,12.7,2z M12.7,12.7H2.3V5h10.4V12.7z"/>
		<path class="st0" d="M10.5,10.1H8.9c-0.3,0-0.5-0.2-0.5-0.5V8c0-0.3,0.2-0.5,0.5-0.5h1.6C10.8,7.6,11,7.8,11,8v1.6
			C11,9.9,10.8,10.1,10.5,10.1z"/>
	</svg>


</svg>